<?xml version="1.0" standalone="no"?>
<!DOCTYPE svg PUBLIC "-//W3C//DTD SVG 20010904//EN"
 "http://www.w3.org/TR/2001/REC-SVG-20010904/DTD/svg10.dtd">
<svg version="1.0" xmlns="http://www.w3.org/2000/svg"
 width="697.000000pt" height="343.000000pt" viewBox="0 0 697.000000 343.000000"
 preserveAspectRatio="xMidYMid meet">

<g transform="translate(0.000000,343.000000) scale(0.100000,-0.100000)"
fill="#000000" stroke="none">
<path d="M0 1715 l0 -1715 3485 0 3485 0 0 1715 0 1715 -3485 0 -3485 0 0
-1715z m3586 984 c32 -5 74 -15 92 -20 32 -10 32 -11 32 -75 0 -36 -6 -80 -14
-98 -25 -59 -44 -66 -197 -66 -75 0 -182 -5 -238 -10 -104 -11 -274 -56 -343
-91 l-39 -20 20 39 c22 44 92 135 130 170 148 135 372 204 557 171z m322 -143
c21 -18 23 -27 18 -66 -14 -105 -87 -198 -195 -248 -54 -26 -65 -27 -286 -33
-211 -6 -238 -8 -320 -33 -94 -29 -229 -94 -276 -134 l-29 -24 0 60 c0 75 6
82 127 139 153 73 253 93 493 99 239 6 271 14 329 80 41 47 61 104 61 175 l0
41 28 -17 c15 -10 38 -27 50 -39z m167 -199 l29 -55 -38 -58 c-73 -109 -190
-198 -311 -234 -22 -7 -141 -16 -265 -20 -156 -6 -243 -13 -285 -24 -89 -25
-194 -80 -268 -141 l-66 -54 -17 51 -17 52 43 37 c66 57 184 120 274 147 70
21 111 25 311 32 127 4 244 12 260 18 134 42 254 154 296 274 7 20 15 35 18
33 3 -2 19 -28 36 -58z m75 -350 c-8 -9 -18 -4 -39 22 l-29 35 32 39 31 39 9
-62 c6 -44 5 -65 -4 -73z m-76 -83 l-29 -24 -32 36 -32 36 -51 -42 c-40 -34
-48 -45 -39 -56 16 -19 33 -17 54 6 19 21 35 18 35 -6 0 -15 -79 -56 -132 -69
-21 -6 -30 -2 -43 19 -30 45 -15 67 79 109 46 21 98 51 116 66 l33 27 35 -38
36 -39 -30 -25z m-334 -75 c0 -17 5 -39 10 -49 9 -17 6 -20 -27 -26 -32 -6
-40 -3 -60 20 -23 27 -23 27 -48 8 -18 -14 -21 -22 -12 -31 8 -8 -29 -11 -148
-11 -142 0 -168 -3 -226 -24 -78 -27 -146 -72 -191 -125 l-32 -38 -33 39 c-33
40 -33 40 -14 64 28 36 95 89 154 122 96 55 143 64 377 72 118 3 223 7 233 8
13 2 17 -5 17 -29z m355 -86 c-41 -99 -144 -218 -245 -284 -98 -64 -240 -109
-343 -109 -38 0 -39 1 -24 18 16 17 12 23 -53 103 -39 46 -74 85 -78 87 -5 1
-16 -6 -26 -17 -17 -19 -16 -22 53 -102 39 -46 69 -85 67 -87 -2 -1 -27 0 -56
4 -52 7 -66 17 -127 92 -17 21 -19 22 -41 6 -13 -9 -21 -22 -18 -30 6 -15 -49
9 -89 39 -19 15 -19 17 24 58 60 56 140 92 216 96 l60 3 55 -70 c30 -39 65
-80 78 -92 22 -22 23 -22 42 -2 19 19 18 20 -31 79 -27 33 -45 61 -39 63 5 2
56 -1 112 -7 95 -10 105 -9 128 8 14 11 24 24 23 30 -2 6 16 15 40 21 63 16
182 67 235 100 26 16 48 30 50 30 1 0 -5 -17 -13 -37z m-2453 -795 c41 -33 32
-50 -77 -148 -58 -52 -105 -97 -105 -102 0 -4 37 -8 83 -8 88 0 110 -9 122
-47 l6 -23 -144 0 c-197 0 -191 -5 -195 168 -5 175 -8 172 166 172 87 0 133
-4 144 -12z m280 0 c9 -7 33 -56 54 -108 20 -52 40 -99 44 -103 4 -5 25 34 45
87 43 107 64 136 101 136 14 0 23 -3 21 -7 -3 -5 -28 -69 -57 -143 -58 -148
-81 -183 -119 -178 -26 3 -32 16 -126 266 l-24 62 23 0 c12 0 29 -6 38 -12z
m699 3 c-13 -8 -13 -20 -3 -72 11 -62 11 -64 -16 -92 -43 -46 -58 -50 -76 -22
-15 23 -14 25 37 74 l52 51 -82 0 -83 0 0 -44 c0 -34 -5 -48 -20 -59 -20 -14
-20 -16 -5 -87 8 -40 13 -75 11 -78 -3 -2 -16 7 -30 21 -25 25 -26 30 -26 149
0 170 -2 168 143 168 71 0 107 -4 98 -9z m601 -8 c16 -14 18 -33 18 -146 0
-107 -3 -134 -17 -149 -32 -35 -54 -21 -153 94 l-95 111 -3 -111 c-2 -99 -5
-112 -20 -112 -37 0 -42 20 -42 159 0 74 3 132 6 128 4 -3 20 1 38 10 l31 16
60 -69 c33 -37 77 -86 97 -109 l37 -40 1 118 c0 122 5 134 42 100z m520 0 c10
-9 18 -24 18 -35 0 -16 -8 -18 -65 -18 l-65 0 0 -111 c0 -117 -9 -149 -40
-149 -19 0 -20 7 -20 129 l0 129 -56 4 c-40 3 -61 10 -70 23 -31 42 -22 45
133 45 122 0 149 -3 165 -17z m578 -48 l0 -65 105 0 105 0 0 47 c0 47 20 83
47 83 10 0 13 -30 13 -146 0 -151 -7 -184 -40 -184 -16 0 -19 9 -22 63 l-3 62
-102 3 -103 3 0 -46 c0 -56 -14 -85 -40 -85 -19 0 -20 8 -20 147 0 122 3 149
17 165 32 35 43 23 43 -47z m530 -70 l0 -135 100 0 100 0 0 135 c0 143 3 152
46 121 17 -13 19 -27 19 -150 0 -178 7 -171 -171 -171 -171 0 -164 -7 -164
165 0 134 11 170 51 170 18 0 19 -8 19 -135z m772 118 c28 -25 22 -45 -26 -92
l-45 -44 45 -57 c78 -99 60 -123 -97 -128 -188 -7 -189 -6 -189 173 0 108 3
137 16 149 23 24 269 23 296 -1z m-2917 -43 c8 -13 -14 -42 -26 -34 -5 3 -9
14 -9 25 0 20 24 26 35 9z m-145 -272 c0 -5 -15 -8 -34 -8 -33 0 -35 2 -45 50
-6 28 -11 54 -11 58 0 9 89 -91 90 -100z m133 50 c9 -5 17 -20 17 -33 0 -24
-3 -25 -56 -25 -49 0 -55 2 -44 15 10 13 9 19 -6 36 -19 21 -19 21 26 18 25
-1 53 -6 63 -11z"/>
<path d="M1400 834 l0 -76 58 50 c31 27 68 62 81 76 l24 26 -81 0 -82 0 0 -76z"/>
<path d="M5370 834 c0 -42 4 -74 9 -72 4 2 43 36 86 76 l79 72 -87 0 -87 0 0
-76z"/>
<path d="M5460 745 l-34 -35 62 0 c34 0 62 2 62 5 0 9 -43 65 -50 65 -3 0 -21
-16 -40 -35z"/>
</g>
</svg>
