<?xml version="1.0" standalone="no"?>
<!DOCTYPE svg PUBLIC "-//W3C//DTD SVG 20010904//EN"
 "http://www.w3.org/TR/2001/REC-SVG-20010904/DTD/svg10.dtd">
<svg version="1.0" xmlns="http://www.w3.org/2000/svg"
 width="1140.000000pt" height="318.000000pt" viewBox="0 0 1140.000000 318.000000"
 preserveAspectRatio="xMidYMid meet">

<g transform="translate(0.000000,318.000000) scale(0.100000,-0.100000)"
fill="#000000" stroke="none">
<path d="M0 1590 l0 -1590 5700 0 5700 0 0 563 0 562 -24 -50 c-31 -67 -68
-102 -146 -138 -36 -17 -67 -33 -70 -37 -3 -3 -54 -19 -115 -35 -73 -19 -144
-46 -212 -81 l-101 -53 -47 15 c-25 9 -49 14 -52 10 -3 -3 0 -117 6 -253 6
-136 13 -275 14 -307 l2 -59 -165 1 c-157 2 -169 3 -255 33 l-90 31 -50 -22
c-45 -19 -48 -23 -33 -34 26 -19 23 -23 -24 -30 -72 -11 -78 -20 -40 -59 17
-18 32 -36 32 -40 0 -4 -69 -7 -154 -7 l-154 0 -53 53 c-29 28 -73 73 -97 99
l-44 47 26 31 c14 17 28 30 31 30 13 -3 29 8 23 15 -5 5 -20 3 -35 -4 -33 -15
-130 -36 -268 -57 -126 -20 -382 -14 -465 11 -30 9 -63 18 -72 20 -9 2 -27 9
-40 15 -22 10 -22 10 -4 -4 33 -27 170 -66 267 -77 94 -11 250 -6 337 11 40 7
102 23 215 55 28 8 -94 -73 -148 -98 -59 -28 -177 -67 -201 -67 -12 0 -24 7
-28 15 -7 20 -75 20 -90 0 -9 -13 -20 -14 -66 -5 -102 19 -239 98 -315 181
l-30 32 135 -6 c74 -4 243 -9 375 -12 132 -4 266 -8 298 -10 31 -1 57 0 57 4
0 4 -26 15 -57 24 -43 12 -72 30 -112 66 -30 28 -58 48 -63 45 -5 -3 -16 0
-24 7 -12 10 -20 9 -40 -2 -31 -16 -52 -5 -74 37 -19 36 -32 46 -44 34 -6 -6
-15 -10 -20 -10 -6 0 -2 6 9 13 19 11 17 12 -15 18 l-35 6 32 2 c17 0 35 -4
38 -9 3 -6 11 -10 17 -10 6 0 6 6 -2 15 -11 13 -10 14 4 9 10 -4 15 -13 12
-20 -3 -8 -1 -14 4 -14 13 0 13 47 0 55 -6 4 -8 10 -5 15 3 4 -2 13 -10 20
-15 13 -20 74 -9 104 3 9 17 16 30 16 20 0 25 6 30 42 5 26 17 51 33 66 l26
25 -25 -8 c-14 -4 -27 -11 -30 -15 -3 -4 -16 -11 -30 -14 -21 -6 -20 -4 8 13
18 12 37 21 43 21 6 0 8 4 5 9 -3 5 5 8 18 7 13 0 22 -4 19 -8 -2 -5 3 -8 11
-8 10 0 13 6 9 17 -6 15 -4 16 9 5 13 -11 22 -9 50 8 18 11 42 20 53 21 11 0
14 3 7 6 -6 2 -10 9 -6 14 10 16 -8 10 -23 -8 -8 -10 -12 -12 -8 -6 4 9 -1 13
-14 13 -12 0 -21 4 -21 9 0 4 12 6 28 4 22 -4 24 -2 12 7 -12 9 -10 10 9 5 18
-6 22 -4 16 6 -5 8 -4 11 1 6 5 -5 10 -13 10 -18 3 -22 5 -23 14 -9 5 8 10 10
10 3 0 -6 9 -9 20 -6 11 3 17 9 14 14 -3 5 -10 7 -15 4 -5 -4 -9 -1 -9 5 0 7
7 9 16 6 9 -4 23 -1 30 5 12 10 13 8 8 -6 -6 -15 -4 -16 14 -6 14 7 20 20 20
40 -1 32 -17 41 -75 45 -18 1 -36 6 -40 10 -4 5 0 6 10 3 25 -9 21 2 -5 14
l-23 10 22 -5 c27 -5 41 10 16 17 -10 3 -4 5 12 4 20 -1 29 2 27 11 -1 8 2 11
7 7 15 -9 2 -32 -22 -39 -18 -5 -19 -8 -7 -15 9 -7 17 -6 21 1 4 7 9 7 13 -1
4 -6 12 -9 17 -6 5 4 9 2 9 -3 0 -6 7 -13 16 -16 12 -4 15 -2 10 9 -9 23 0 18
20 -13 14 -21 14 -24 2 -14 -14 11 -16 9 -14 -12 1 -21 4 -23 21 -14 11 6 21
12 23 13 2 2 -13 22 -34 44 -28 32 -40 39 -50 30 -10 -8 -12 -6 -9 12 4 18
-11 38 -65 93 -39 38 -70 75 -70 82 0 7 23 58 51 114 54 105 92 145 165 176
43 18 130 20 178 4 25 -8 45 -7 87 4 54 14 54 14 52 50 -2 22 1 34 7 31 6 -3
11 1 11 9 1 9 2 22 3 29 1 6 -8 23 -20 37 -25 29 -49 74 -58 112 -3 15 -15 29
-25 33 -44 14 -47 109 -5 133 15 9 16 16 6 67 -7 32 -12 72 -12 89 0 19 -10
43 -25 60 -48 55 -19 145 61 192 38 23 53 26 95 21 35 -4 63 -1 90 10 38 15
42 15 98 -11 32 -14 74 -26 94 -26 57 0 67 -9 108 -93 43 -90 47 -116 22 -140
-10 -9 -28 -25 -40 -37 -18 -16 -23 -31 -23 -70 0 -27 5 -50 10 -50 20 0 50
-41 50 -69 0 -42 -9 -60 -39 -75 -18 -10 -30 -28 -38 -59 -7 -24 -23 -58 -37
-74 -26 -31 -28 -55 -8 -75 7 -7 12 -26 12 -44 0 -48 36 -60 120 -38 111 28
278 3 515 -78 101 -34 248 -98 313 -136 43 -25 44 -25 103 -8 32 9 61 16 63
16 3 0 15 -27 27 -60 12 -33 23 -60 25 -60 2 0 4 439 4 975 l0 975 -2045 0
-2045 0 -19 -32 c-45 -76 -69 -98 -166 -152 -67 -37 -90 -47 -68 -28 17 15 55
40 85 55 76 40 82 46 106 101 12 27 22 50 22 52 0 2 -1636 4 -3635 4 l-3635 0
0 -1590z m5577 1523 c19 -9 37 -22 40 -30 4 -11 10 -10 27 5 46 43 96 53 153
31 97 -37 111 -173 26 -261 -29 -30 -85 -53 -109 -44 -13 5 -13 9 2 31 9 14
14 28 11 31 -3 3 -12 -8 -21 -24 -17 -33 -34 -42 -77 -42 -34 0 -36 8 -9 60
11 22 22 61 25 87 l4 48 -9 -46 c-16 -77 -56 -136 -109 -164 -54 -28 -53 -30
13 -10 54 16 143 20 165 6 7 -5 15 -25 17 -46 l3 -36 -32 8 c-95 24 -218 -4
-290 -68 l-45 -39 -11 32 c-10 27 -8 35 9 53 12 12 43 33 70 46 56 28 63 39
21 39 -17 0 -42 11 -60 26 -33 27 -40 22 -16 -10 31 -41 8 -76 -49 -76 -14 0
-28 -4 -31 -10 -3 -5 3 -10 14 -10 30 0 16 -25 -24 -44 -92 -44 -168 -4 -180
97 -12 94 39 172 139 213 25 11 49 27 52 38 12 36 56 91 87 108 42 23 147 24
194 1z m1841 -95 c5 -7 26 -44 46 -83 19 -38 35 -63 36 -55 0 9 -9 33 -20 55
-23 45 -20 57 4 20 41 -63 56 -147 36 -200 -8 -20 -6 -32 5 -48 8 -12 15 -26
15 -32 0 -6 -29 -26 -63 -45 l-64 -34 -39 43 c-61 67 -67 100 -34 166 l20 40
-30 44 c-32 45 -36 77 -8 75 11 -1 14 5 10 19 -9 36 61 65 86 35z m-769 -82
c21 -14 53 -95 47 -121 -3 -12 -21 -50 -40 -84 -34 -60 -34 -61 -11 -55 17 4
26 0 34 -14 15 -29 14 -32 -13 -32 -13 0 -34 -11 -47 -25 -13 -13 -34 -25 -46
-25 -22 0 -63 -43 -63 -66 0 -7 -9 -16 -20 -19 -25 -8 -43 -40 -35 -64 4 -13
-2 -24 -20 -35 -14 -9 -23 -21 -20 -26 9 -14 -12 -21 -23 -7 -13 15 6 72 43
130 l27 42 -30 -33 c-17 -18 -32 -29 -34 -25 -1 4 -25 5 -53 2 -27 -3 -38 -7
-23 -7 47 -3 58 -12 58 -48 0 -49 -58 -111 -119 -126 -41 -10 -43 -12 -21 -18
60 -17 158 -76 210 -129 67 -67 100 -133 100 -198 l0 -48 26 38 c26 40 98 97
120 97 7 0 17 6 21 13 4 7 31 18 58 24 41 10 54 9 73 -3 22 -14 24 -14 20 3
-3 16 -15 18 -87 20 -46 1 -94 4 -105 7 -22 6 -76 74 -109 136 -20 36 -29 100
-15 100 4 0 8 9 8 20 0 11 4 20 9 20 5 0 7 -10 3 -22 -5 -21 -5 -21 21 -2 30
21 34 34 12 34 -28 0 11 62 42 66 8 2 23 10 32 18 19 18 33 12 24 -10 -7 -18
2 -18 32 2 35 23 54 12 115 -67 82 -105 83 -107 66 -178 l-14 -61 23 6 c14 3
33 -1 48 -11 24 -15 28 -15 58 0 18 10 57 19 88 22 47 4 58 2 67 -14 6 -10 53
-97 104 -193 89 -166 122 -239 175 -390 l22 -65 -51 -34 c-64 -43 -228 -120
-326 -154 -95 -33 -289 -72 -299 -61 -4 5 -22 56 -40 113 -18 57 -41 111 -51
121 -10 10 -16 21 -13 24 3 3 -4 21 -16 41 -11 20 -21 41 -21 47 0 15 -53 122
-63 126 -4 2 -5 8 -2 13 3 4 -6 30 -20 56 -25 47 -25 47 -19 13 3 -19 11 -41
17 -48 5 -7 7 -15 4 -18 -3 -4 0 -13 8 -21 16 -16 20 -38 6 -28 -5 3 1 -30 15
-72 13 -43 32 -110 41 -150 l16 -71 -37 -65 c-50 -90 -109 -162 -159 -194 -35
-23 -52 -27 -107 -27 -62 1 -138 27 -154 52 -3 5 23 58 58 118 48 83 70 113
96 126 40 21 76 84 84 147 5 40 24 110 67 246 l19 60 -31 -38 c-38 -46 -94
-76 -174 -93 -51 -11 -164 -19 -166 -11 0 1 -8 69 -17 152 -17 145 -18 149
-42 155 -22 5 -28 18 -56 125 -16 66 -33 127 -37 135 -4 8 -4 -63 -1 -157 4
-110 2 -173 -4 -173 -5 0 -35 11 -66 25 -31 14 -75 25 -97 25 -48 0 -110 -30
-136 -65 -15 -22 -30 -27 -93 -36 -41 -5 -85 -9 -98 -9 -18 0 -23 -5 -21 -23
2 -12 -2 -32 -9 -44 -7 -12 -12 -29 -12 -37 0 -9 -9 -16 -20 -16 -11 0 -20 -4
-20 -9 0 -5 -9 -7 -20 -4 -14 4 -20 0 -20 -11 0 -13 -4 -15 -17 -8 -10 5 -25
7 -33 4 -11 -4 -10 0 3 12 12 12 15 25 11 40 -14 44 -107 277 -109 274 -2 -2
7 -55 20 -118 42 -211 42 -202 -5 -235 -22 -15 -40 -32 -40 -37 0 -42 376 -63
596 -33 98 14 168 34 209 62 29 19 33 17 40 -28 5 -27 11 -39 20 -36 25 10 76
-33 100 -86 14 -28 25 -58 25 -66 0 -8 7 -23 17 -33 15 -17 15 -21 -1 -56 -10
-21 -29 -51 -42 -67 l-24 -28 -23 21 c-12 11 -40 26 -63 33 -30 10 -40 17 -37
29 4 14 -4 17 -43 18 -32 0 -43 -3 -33 -9 8 -5 24 -9 37 -9 12 0 22 -4 22 -10
0 -17 -46 -11 -63 8 -9 10 -20 33 -23 50 -7 36 -8 36 -35 22 -23 -13 -23 -12
-5 31 8 19 25 40 38 48 l23 15 -35 9 c-47 12 -61 12 -88 3 -22 -7 -23 -6 -17
14 7 21 5 22 -23 17 -22 -5 -32 -2 -36 10 -9 22 -94 13 -132 -14 -37 -25 -104
-37 -104 -19 0 17 -31 26 -89 26 -35 0 -42 -3 -33 -12 7 -7 12 -41 12 -85 0
-60 -3 -71 -15 -67 -10 4 -15 0 -15 -12 -1 -11 -9 -35 -20 -54 -21 -41 -17
-48 -60 115 -17 66 -35 127 -39 135 -5 9 -22 15 -42 15 -30 0 -34 4 -37 28 -6
53 -89 75 -202 53 -98 -19 -178 -49 -242 -92 -28 -19 -52 -33 -54 -31 -2 2 -4
24 -5 49 -2 39 2 51 27 76 16 16 36 31 44 34 15 5 -30 30 -80 43 -22 6 -23 6
-8 -6 16 -13 22 -34 19 -71 -1 -22 -84 -59 -133 -60 -111 -1 -184 118 -128
209 18 30 65 63 89 63 6 0 13 -11 17 -25 3 -14 20 -35 37 -47 17 -12 28 -18
25 -12 -28 53 -40 94 -40 144 0 73 22 114 74 135 43 17 153 21 143 5 -3 -5 1
-10 9 -10 17 0 48 37 66 79 23 56 138 85 239 61 40 -9 59 -21 87 -54 19 -22
38 -53 41 -68 l5 -28 37 29 c20 16 58 41 85 55 46 25 49 25 84 9 150 -65 252
-48 354 62 l53 57 65 -6 c184 -18 223 -19 214 -5 -12 20 -23 122 -14 134 20
27 34 89 39 170 6 78 11 96 36 135 40 60 155 120 231 120 42 0 55 5 80 29 16
16 38 30 49 33 25 5 96 -5 114 -16z m-3794 -110 c164 -52 344 -165 417 -261
63 -83 60 -141 -9 -210 -30 -31 -61 -50 -100 -62 -30 -9 -57 -22 -58 -28 -19
-73 -28 -96 -40 -108 -12 -13 -12 -17 5 -32 15 -13 20 -31 20 -65 0 -49 -15
-72 -56 -84 -14 -4 -25 -21 -33 -49 -7 -23 -30 -62 -50 -87 -42 -50 -65 -135
-40 -151 11 -6 9 -18 -7 -56 -20 -47 -20 -49 -2 -108 10 -33 30 -109 44 -169
18 -73 29 -104 35 -94 8 15 -15 133 -51 249 -11 36 -20 69 -20 73 0 13 141
-24 223 -58 43 -19 42 -20 122 49 87 76 128 98 240 133 74 23 108 39 130 62
34 35 45 38 45 10 0 -26 23 -72 46 -91 9 -8 28 -38 40 -66 22 -50 26 -53 60
-53 31 0 43 7 82 50 79 87 81 87 155 32 35 -26 82 -60 105 -77 23 -16 42 -35
42 -40 0 -6 9 -16 21 -23 11 -7 27 -29 35 -48 16 -38 21 -40 68 -20 59 25 209
64 290 76 89 13 111 5 77 -29 -44 -44 -8 -131 54 -131 23 0 25 3 25 48 1 72
17 130 52 178 35 50 46 50 29 3 -6 -18 -9 -34 -6 -37 2 -3 46 23 96 56 93 63
95 63 68 -5 -7 -18 -10 -35 -7 -39 4 -3 40 12 82 33 l75 40 9 -36 9 -36 8 38
c8 42 25 44 36 6 52 -177 92 -328 92 -346 -1 -19 4 -23 31 -23 17 0 40 7 50
15 16 12 17 15 4 15 -24 0 -28 25 -7 43 20 17 27 43 8 32 -5 -4 -3 10 6 32 9
21 19 43 21 49 3 6 10 11 17 12 7 0 21 2 32 3 42 4 261 -50 370 -92 28 -10 59
-20 70 -22 11 -2 30 -8 42 -15 12 -7 29 -9 39 -5 11 4 15 3 11 -4 -4 -6 8 -20
27 -31 46 -27 65 -59 73 -119 4 -38 1 -61 -15 -96 -23 -53 -55 -77 -112 -84
-59 -8 -49 -23 18 -24 213 -4 280 -15 289 -50 4 -14 11 -18 25 -13 17 5 19 2
15 -23 -3 -15 -13 -42 -22 -60 -13 -26 -14 -37 -5 -54 12 -22 7 -72 -54 -564
l-21 -170 -443 -3 c-265 -1 -442 1 -442 7 0 13 -55 410 -77 549 -16 107 -16
115 0 123 23 13 21 38 -4 65 -12 13 -23 34 -24 48 -2 13 -6 34 -10 46 -7 21
-6 21 24 6 39 -21 57 -21 37 0 -20 19 -20 34 -1 34 7 0 18 7 23 15 5 9 29 18
59 22 l51 6 7 -34 c9 -43 33 -82 45 -74 12 8 13 62 1 69 -5 3 -11 15 -14 26
-5 19 -2 21 24 15 18 -4 29 -3 29 4 0 7 35 11 100 11 l100 0 0 186 0 185 -47
-3 c-48 -3 -48 -3 -51 -40 -3 -30 -7 -38 -23 -38 -15 0 -19 -6 -17 -27 1 -16
1 -52 0 -80 l-2 -53 -37 0 c-21 0 -60 -11 -88 -25 -57 -28 -107 -32 -125 -10
-10 13 -9 15 8 15 12 0 24 4 27 10 4 6 -5 7 -24 4 -23 -5 -31 -2 -41 16 -10
18 -9 24 1 31 11 7 9 9 -7 9 -15 0 -24 -12 -38 -53 -11 -28 -34 -85 -52 -126
-19 -41 -34 -86 -34 -100 0 -19 -8 -30 -30 -39 -57 -26 -27 -58 58 -63 22 -2
48 -8 57 -15 15 -11 15 -13 -6 -24 -21 -12 -94 -9 -130 5 -14 5 -18 -4 -24
-52 -16 -134 -85 -250 -184 -314 -84 -54 -192 -35 -285 50 -79 73 -158 233
-198 402 -21 91 -24 96 -49 96 -31 0 -141 50 -203 92 -76 52 -158 134 -177
176 -24 52 -24 78 2 101 19 17 19 19 3 24 -25 9 44 50 85 50 17 0 31 5 31 10
0 21 -67 9 -111 -19 -27 -18 -68 -34 -104 -40 -33 -5 -72 -14 -86 -19 -19 -8
-30 -7 -39 1 -10 9 -11 9 -6 -1 4 -7 1 -24 -8 -37 -31 -47 -12 -87 39 -87 30
0 32 -18 5 -43 -26 -24 -93 -142 -88 -157 2 -6 24 24 48 66 32 55 57 86 88
107 25 17 46 29 48 27 1 -2 -6 -35 -17 -73 -48 -176 -58 -216 -72 -310 -26
-166 -35 -284 -31 -413 2 -68 2 -127 -1 -132 -2 -4 -40 1 -82 11 -88 21 -103
23 -103 10 0 -4 28 -15 63 -22 l62 -14 -67 -3 -68 -3 0 -30 c0 -16 14 -56 30
-89 17 -33 30 -62 30 -65 0 -3 -376 -5 -835 -5 -816 0 -835 0 -835 19 0 11 -3
26 -6 35 -5 13 2 16 38 16 25 0 79 3 121 6 l76 7 3 111 3 111 385 0 385 0 3
-32 c3 -28 7 -33 29 -33 23 0 25 3 19 32 -3 18 -8 69 -12 113 -4 44 -8 87 -10
95 -1 8 -3 19 -3 24 -1 5 -54 5 -123 1 -155 -10 -159 -10 -292 22 -61 14 -129
28 -151 30 -117 12 -263 36 -293 49 -19 8 -37 13 -39 11 -2 -2 -26 -107 -54
-233 -27 -125 -51 -230 -53 -231 -2 -2 -9 112 -16 252 -7 140 -15 255 -18 255
-2 0 -27 -20 -54 -45 -28 -25 -56 -45 -64 -45 -8 0 -14 -4 -14 -8 0 -10 -52
-329 -76 -469 l-16 -93 -210 0 c-151 0 -207 3 -202 11 3 6 1 15 -7 20 -11 6
-10 11 3 26 9 10 20 41 24 68 11 68 11 70 -7 67 -11 -1 -20 10 -27 36 -7 22
-23 56 -37 76 l-24 36 64 0 c73 0 66 -9 84 113 5 37 19 82 30 101 11 18 23 59
27 92 16 150 102 428 171 553 l36 64 -31 56 c-16 31 -33 72 -37 91 -10 45 -47
119 -81 159 -26 31 -26 34 -15 89 6 31 12 65 13 75 3 16 6 15 35 -5 57 -40 76
-89 88 -221 4 -39 16 -76 39 -117 l33 -60 42 64 c50 78 207 227 269 256 24 12
81 25 126 30 87 11 316 14 316 5 0 -3 -12 -29 -26 -57 -37 -73 -96 -229 -89
-236 9 -9 21 10 40 63 10 28 36 88 59 135 22 47 40 96 41 110 5 95 4 91 24 81
15 -9 20 -5 29 27 10 32 8 46 -9 92 -17 45 -20 69 -16 132 5 71 3 78 -19 97
-44 38 -25 125 30 139 30 8 30 9 31 73 1 57 -2 67 -26 92 -37 36 -86 124 -104
184 -31 102 -10 173 62 213 34 18 51 20 163 16 99 -3 142 -9 205 -30z m4823
-243 c36 -96 45 -138 49 -239 6 -117 -7 -185 -47 -265 -31 -60 -117 -146 -185
-183 -68 -39 -95 -45 -95 -21 0 8 -5 15 -11 15 -6 0 -9 7 -5 15 3 9 -3 19 -15
26 -11 6 -18 13 -16 16 3 2 -16 35 -41 71 -89 130 -102 150 -102 157 0 4 28 4
63 1 53 -6 68 -3 106 16 62 32 84 66 89 136 3 46 0 68 -17 101 -12 23 -19 46
-16 50 8 13 142 101 179 117 44 19 52 17 64 -13z m-6244 -75 c3 -13 6 -121 6
-240 l0 -216 -32 -11 c-18 -6 -64 -17 -103 -25 l-70 -14 65 0 c36 -1 82 5 103
12 44 16 51 10 45 -45 -3 -30 -8 -34 -68 -57 -87 -33 -233 -41 -311 -18 -69
20 -75 24 -82 64 l-6 32 82 0 c90 0 92 19 2 21 -88 1 -85 -2 -116 165 -15 82
-31 181 -34 220 l-7 71 33 7 c18 3 34 5 36 3 2 -2 12 -50 23 -106 19 -102 47
-178 35 -96 -3 22 -11 75 -17 118 -7 47 -8 81 -2 86 5 5 38 11 74 13 l65 3 3
-45 c4 -74 33 -294 39 -300 3 -3 2 54 -3 125 -4 72 -8 153 -8 180 l-1 50 69 8
c49 6 71 5 76 -3 8 -14 29 -210 31 -291 l1 -54 11 50 c7 35 7 86 -1 173 -7 68
-9 128 -6 133 3 5 18 9 33 9 21 0 30 -6 35 -22z m2501 -34 c33 -4 69 -10 80
-14 12 -5 50 -59 90 -126 38 -66 80 -134 92 -153 28 -41 29 -61 4 -109 -38
-74 -47 -77 -195 -75 -111 2 -230 -5 -360 -22 -55 -7 -56 -4 -56 136 0 84 -4
136 -12 149 -10 16 -7 29 17 79 16 34 39 70 51 82 27 25 169 70 204 64 14 -2
52 -7 85 -11z m4041 -40 c12 -15 25 -41 29 -58 12 -59 17 -146 8 -146 -17 0
-74 60 -68 71 13 20 -6 79 -30 95 -23 15 -27 15 -51 -1 -24 -15 -27 -15 -51 0
-21 14 -23 19 -12 30 53 52 138 56 175 9z m-6 -205 l25 -21 -28 16 c-20 12
-32 14 -41 7 -8 -7 -16 -6 -26 1 -12 8 -12 9 2 4 10 -3 20 -1 23 4 9 14 17 12
45 -11z m-110 7 c0 -2 -7 -7 -16 -10 -8 -3 -12 -2 -9 4 6 10 25 14 25 6z m105
-34 c-3 -3 -11 0 -18 7 -9 10 -8 11 6 5 10 -3 15 -9 12 -12z m571 3 c-15 -11
-16 -15 -5 -15 8 0 20 5 27 10 9 7 9 7 2 -2 -6 -7 -5 -19 1 -32 9 -19 9 -19
-4 -4 -7 9 -25 20 -40 23 -26 7 -33 -1 -27 -30 1 -5 -4 -4 -11 3 -7 6 -18 12
-23 12 -6 -1 0 -10 13 -20 13 -11 18 -20 11 -20 -7 0 -10 -7 -6 -16 3 -9 2
-12 -4 -9 -6 4 -9 14 -8 22 2 9 -3 18 -11 21 -8 2 -11 0 -8 -5 3 -5 -3 -9 -13
-9 -15 0 -14 4 8 28 19 19 28 24 34 15 6 -9 8 -9 8 0 0 7 15 19 33 27 42 19
46 19 23 1z m-504 -23 c10 -10 6 -10 -20 -1 -17 6 -32 13 -32 15 0 8 41 -3 52
-14z m358 13 c0 -2 -10 -9 -22 -15 -22 -11 -22 -10 -4 4 21 17 26 19 26 11z
m-600 -15 c-8 -5 -19 -10 -25 -10 -5 0 -3 5 5 10 8 5 20 10 25 10 6 0 3 -5 -5
-10z m642 3 c-6 -3 -10 -9 -6 -14 3 -5 1 -9 -4 -9 -21 0 -19 26 2 27 11 0 15
-1 8 -4z m-378 -25 c-5 -7 -2 -9 9 -5 11 4 14 2 10 -9 -4 -11 -9 -12 -19 -3
-12 10 -11 29 2 29 3 0 2 -5 -2 -12z m331 2 c-3 -5 -12 -10 -18 -10 -7 0 -6 4
3 10 19 12 23 12 15 0z m-628 -20 c-1 -11 -5 -20 -9 -20 -10 0 -10 4 -2 24 8
22 13 20 11 -4z m203 16 c0 -2 -7 -9 -15 -16 -13 -11 -14 -10 -9 4 5 14 24 23
24 12z m140 -25 c0 -6 -4 -12 -8 -15 -5 -3 -9 1 -9 9 0 8 4 15 9 15 4 0 8 -4
8 -9z m771 -1 c10 -6 19 -16 19 -23 0 -9 -2 -9 -9 1 -4 7 -21 17 -37 22 -17 5
-21 9 -11 9 10 1 27 -4 38 -9z m-965 -27 c-7 -7 -26 7 -26 19 0 6 6 6 15 -2 9
-7 13 -15 11 -17z m99 17 c-3 -5 -12 -10 -18 -10 -7 0 -6 4 3 10 19 12 23 12
15 0z m410 -10 c3 -6 -1 -7 -9 -4 -18 7 -21 14 -7 14 6 0 13 -4 16 -10z m390
1 c3 -5 2 -12 -3 -15 -5 -3 -9 1 -9 9 0 17 3 19 12 6z m-736 -15 c9 -11 9 -16
-1 -22 -7 -4 -10 -4 -6 1 4 4 3 14 -3 22 -6 7 -9 13 -6 13 2 0 10 -6 16 -14z
m491 4 c0 -5 -10 -10 -22 -9 -22 0 -22 1 -3 9 11 5 21 9 23 9 1 1 2 -3 2 -9z
m-656 -19 c4 -5 -2 -7 -13 -4 -20 5 -42 -18 -23 -25 7 -2 12 -8 12 -14 0 -6
-6 -6 -15 2 -8 7 -15 18 -15 25 0 21 44 33 54 16z m711 -22 c2 -31 -34 -38
-42 -9 -3 11 -9 17 -14 14 -5 -3 -17 -1 -26 5 -14 8 -11 9 14 6 18 -2 35 1 39
6 10 17 28 4 29 -22z m269 23 c3 -5 -1 -9 -9 -9 -8 0 -12 4 -9 9 3 4 7 8 9 8
2 0 6 -4 9 -8z m-552 -11 c8 11 9 10 4 -3 -3 -10 -1 -18 4 -18 5 0 11 8 13 18
4 15 5 15 6 0 0 -9 -4 -20 -9 -23 -13 -8 -40 13 -39 29 0 6 3 5 6 -3 5 -11 7
-11 15 0z m68 -16 c14 -18 13 -19 -1 -8 -9 7 -19 10 -23 6 -4 -4 -4 1 0 10 3
10 7 17 8 15 1 -2 8 -12 16 -23z m-185 5 c3 -5 1 -10 -4 -10 -6 0 -11 5 -11
10 0 6 2 10 4 10 3 0 8 -4 11 -10z m548 -10 c-3 -12 -8 -19 -11 -16 -5 6 5 36
12 36 2 0 2 -9 -1 -20z m-809 -2 c-5 -7 -2 -9 7 -6 11 4 15 -1 15 -17 0 -13
-4 -21 -8 -19 -5 3 -5 10 -2 16 5 7 2 9 -8 5 -11 -4 -15 -1 -13 11 5 23 4 22
11 22 3 0 2 -5 -2 -12z m576 -8 c6 -11 8 -20 6 -20 -3 0 -10 9 -16 20 -6 11
-8 20 -6 20 3 0 10 -9 16 -20z m168 -5 c-14 -26 -23 -34 -15 -14 3 9 1 21 -4
26 -5 5 -1 9 10 9 16 0 18 -4 9 -21z m-666 -4 c8 11 9 10 4 -3 -3 -11 0 -18 7
-19 9 0 9 -2 0 -5 -7 -3 -9 -12 -6 -20 3 -8 -1 -14 -8 -14 -7 0 -10 3 -6 6 3
4 -2 14 -11 23 -10 9 -13 13 -8 9 16 -13 31 -9 18 4 -7 7 -11 19 -11 28 1 10
3 9 6 -4 4 -15 7 -16 15 -5z m805 4 c0 -8 -4 -12 -9 -9 -5 3 -6 10 -3 15 9 13
12 11 12 -6z m-603 -3 c3 -5 -1 -9 -9 -9 -8 0 -12 4 -9 9 3 4 7 8 9 8 2 0 6
-4 9 -8z m336 -6 c0 -2 -7 -9 -15 -16 -13 -11 -14 -10 -9 4 5 14 24 23 24 12z
m141 -19 c-10 -9 -11 -8 -5 6 3 10 9 15 12 12 3 -3 0 -11 -7 -18z m-51 -7 c-9
-6 -9 -9 -1 -13 8 -4 8 -5 0 -3 -7 1 -13 9 -15 18 -1 11 3 15 13 11 11 -4 12
-8 3 -13z m-271 7 c-2 -1 -15 -11 -29 -22 l-25 -20 19 23 c11 12 24 22 29 22
6 0 8 -1 6 -3z m485 -6 c3 -5 -2 -15 -12 -22 -16 -13 -16 -13 -2 5 14 18 13
18 -10 12 -19 -6 -21 -5 -10 3 18 13 27 14 34 2z m-1157 -23 c-3 -8 -6 -5 -6
6 -1 11 2 17 5 13 3 -3 4 -12 1 -19z m166 15 c12 -12 -33 -51 -53 -46 -17 5
-16 7 8 29 29 25 35 28 45 17z m852 -3 c-3 -5 -11 -10 -16 -10 -6 0 -7 5 -4
10 3 6 11 10 16 10 6 0 7 -4 4 -10z m-978 -22 c-3 -8 -6 -5 -6 6 -1 11 2 17 5
13 3 -3 4 -12 1 -19z m649 2 c0 -12 -4 -16 -9 -11 -5 5 -6 14 -3 20 10 15 12
14 12 -9z m227 1 c3 -13 1 -18 -9 -14 -7 2 -10 11 -7 19 7 19 10 18 16 -5z
m-605 -21 c7 0 12 -3 13 -7 0 -5 2 -15 3 -23 10 -51 29 -266 28 -322 -1 -74
-2 -74 63 -58 53 14 214 14 249 0 l28 -10 -25 -20 c-14 -11 -47 -29 -73 -41
-66 -28 -170 -24 -234 10 -42 21 -44 22 -27 3 32 -35 81 -52 149 -52 79 0 116
10 174 49 25 17 48 31 51 31 12 0 -6 -116 -22 -148 -9 -18 -15 -34 -14 -36 4
-2 150 -17 319 -33 l55 -5 24 99 c31 132 44 155 79 147 15 -4 28 -7 29 -8 0
-1 -10 -35 -24 -76 -20 -57 -27 -102 -31 -188 -4 -110 -4 -114 27 -176 17 -35
42 -71 56 -80 l24 -16 -40 -113 c-23 -61 -44 -123 -47 -137 -3 -14 -13 -32
-24 -41 -10 -9 -18 -23 -18 -30 0 -11 2 -11 10 1 9 14 14 7 11 -14 -1 -4 4
-16 11 -25 10 -13 9 -13 -8 2 -20 17 -21 16 -33 -24 -14 -45 -10 -53 53 -112
16 -15 35 -38 42 -52 l13 -25 -183 0 -184 0 -17 -67 c-9 -38 -23 -86 -31 -108
-7 -22 -18 -62 -24 -89 -6 -27 -20 -61 -30 -77 -15 -20 -17 -29 -8 -33 7 -4 3
-4 -9 -2 -12 2 -28 -2 -34 -10 -10 -12 -8 -13 7 -8 16 5 16 4 4 -5 -19 -14
-170 -15 -170 -1 0 6 6 10 14 10 9 0 12 7 9 19 -4 17 -8 18 -24 8 -11 -7 -15
-13 -10 -15 11 -4 3 -32 -9 -32 -11 0 -30 57 -30 91 0 16 -4 29 -10 29 -5 0
-10 -15 -10 -32 0 -34 -19 -79 -20 -48 0 13 -1 13 -10 0 -9 -13 -10 -13 -11 0
-1 8 -1 19 0 24 1 5 -5 6 -13 3 -11 -4 -13 -1 -9 10 5 13 3 14 -15 4 -12 -7
-22 -16 -22 -21 0 -6 -6 -10 -14 -10 -21 0 -25 -23 -7 -37 14 -11 13 -12 -9
-12 -27 1 -81 16 -65 18 11 2 -51 31 -73 35 -8 1 -18 9 -23 17 -5 8 -9 10 -9
4 0 -15 13 -31 30 -38 13 -4 12 -6 -1 -6 -9 -1 -27 7 -38 17 -19 15 -23 32
-31 127 -22 272 -47 464 -74 565 -8 30 -13 57 -10 59 2 2 25 -5 51 -17 206
-87 458 -84 715 8 89 31 166 69 142 70 -11 0 -24 -4 -30 -9 -13 -12 -145 -56
-250 -83 -107 -27 -304 -31 -424 -9 -81 15 -224 76 -215 92 4 5 22 9 40 9 32
0 34 2 25 24 -24 63 34 122 94 95 14 -7 26 -16 26 -21 0 -5 -9 -4 -19 2 -45
23 -81 1 -81 -50 0 -56 76 -62 101 -7 8 18 9 16 4 -11 l-5 -33 57 3 c66 3 56
-15 102 193 47 210 47 210 16 242 -52 54 -60 85 -89 368 -8 77 -18 178 -22
225 -6 84 -6 85 13 68 11 -10 25 -18 31 -18z m512 11 c0 -5 -9 -7 -20 -4 -11
3 -20 7 -20 9 0 2 9 4 20 4 11 0 20 -4 20 -9z m294 -18 c-8 -9 -12 -18 -8 -22
4 -3 9 0 11 7 7 19 22 4 16 -17 -3 -12 -11 -17 -19 -14 -41 15 -70 -97 -40
-156 10 -18 23 -31 29 -28 7 2 20 26 29 53 10 31 17 41 17 26 2 -40 -26 -92
-48 -92 -37 0 -55 44 -55 135 -1 83 -1 84 29 97 17 7 29 19 28 25 -2 7 4 10
12 7 13 -5 12 -8 -1 -21z m-458 8 c-4 -5 0 -12 6 -14 8 -3 6 -6 -4 -6 -18 -1
-24 10 -11 22 9 10 15 8 9 -2z m217 2 c-7 -2 -21 -2 -30 0 -10 3 -4 5 12 5 17
0 24 -2 18 -5z m-78 -13 c3 -5 1 -10 -4 -10 -6 0 -11 5 -11 10 0 6 2 10 4 10
3 0 8 -4 11 -10z m-238 -11 c-9 -6 -22 -7 -29 -3 -8 5 -9 1 -4 -12 5 -14 4
-16 -5 -7 -16 16 -6 28 27 30 23 1 25 -1 11 -8z m323 -15 c0 -2 -8 -1 -17 4
-10 5 -25 7 -33 5 -13 -4 -13 -3 -1 6 14 9 51 -2 51 -15z m35 16 c3 -6 -1 -7
-9 -4 -18 7 -21 14 -7 14 6 0 13 -4 16 -10z m-888 -22 c-3 -8 -6 -5 -6 6 -1
11 2 17 5 13 3 -3 4 -12 1 -19z m568 13 c3 -5 2 -12 -3 -15 -5 -3 -9 1 -9 9 0
17 3 19 12 6z m-598 -23 c-3 -8 -6 -5 -6 6 -1 11 2 17 5 13 3 -3 4 -12 1 -19z
m687 6 c30 -29 19 -33 -14 -4 -13 11 -18 20 -12 20 6 0 18 -7 26 -16z m165 3
c-2 -1 -11 -8 -21 -15 -12 -10 -18 -10 -24 -1 -4 8 -3 9 4 5 7 -4 12 -2 12 3
0 6 8 11 17 11 9 0 14 -1 12 -3z m-7116 -202 c-8 -57 -34 -124 -74 -187 -47
-73 -64 -88 -97 -88 -37 0 -138 58 -180 105 -53 57 -88 165 -84 258 l3 67 42
-7 c88 -16 228 -8 307 18 l75 25 6 -81 c3 -44 4 -93 2 -110z m7047 185 c0 -5
-7 -7 -15 -4 -8 4 -15 8 -15 10 0 2 7 4 15 4 8 0 15 -4 15 -10z m109 -13 c-8
-13 -14 -16 -21 -9 -13 13 -4 29 16 29 12 0 13 -5 5 -20z m101 13 c11 -8 7 -9
-15 -4 -37 8 -45 14 -19 14 10 0 26 -5 34 -10z m-975 -40 c-4 -17 -9 -29 -12
-26 -3 2 -2 19 2 36 4 17 9 29 12 26 3 -2 2 -19 -2 -36z m485 36 c0 -3 -4 -8
-10 -11 -5 -3 -10 -1 -10 4 0 6 5 11 10 11 6 0 10 -2 10 -4z m430 -5 c0 -6 -4
-12 -8 -15 -5 -3 -9 1 -9 9 0 8 4 15 9 15 4 0 8 -4 8 -9z m-7667 -37 c2 -15 2
-45 -1 -68 -5 -37 -6 -38 -13 -16 -10 36 -10 110 0 110 5 0 11 -12 14 -26z
m7354 4 c-3 -8 -6 -5 -6 6 -1 11 2 17 5 13 3 -3 4 -12 1 -19z m153 12 c0 -5
-5 -10 -11 -10 -5 0 -7 5 -4 10 3 6 8 10 11 10 2 0 4 -4 4 -10z m-35 -18 c-3
-3 -11 0 -18 7 -9 10 -8 11 6 5 10 -3 15 -9 12 -12z m-214 -38 c5 -15 8 -29 5
-31 -2 -3 -7 6 -11 19 -4 13 -13 26 -19 30 -8 5 -7 8 2 8 7 0 17 -12 23 -26z
m111 4 c-2 -10 -6 -18 -7 -18 -1 0 -5 8 -7 18 -3 11 0 19 7 19 7 0 10 -8 7
-19z m208 16 c0 -8 -19 -13 -24 -6 -3 5 1 9 9 9 8 0 15 -2 15 -3z m97 0 c-3
-3 -12 -4 -19 -1 -8 3 -5 6 6 6 11 1 17 -2 13 -5z m-21 -47 c-3 -35 15 -72 29
-59 5 4 5 1 1 -6 -6 -10 -13 -8 -30 10 -12 13 -17 26 -12 29 5 4 6 11 2 17 -5
9 2 42 9 42 2 0 2 -15 1 -33z m75 19 c5 3 4 -6 -2 -20 -10 -20 -15 -23 -26
-15 -7 6 -13 17 -12 23 0 7 2 6 6 -1 8 -22 25 -14 19 10 -3 12 -3 16 0 9 3 -6
10 -10 15 -6z m-3133 -10 c-7 -7 -19 -11 -25 -9 -22 9 -14 23 12 23 21 0 24
-2 13 -14z m3012 10 c0 -3 -4 -8 -10 -11 -5 -3 -10 -1 -10 4 0 6 5 11 10 11 6
0 10 -2 10 -4z m-3005 -36 c-3 -5 -14 -10 -23 -9 -14 0 -13 2 3 9 27 11 27 11
20 0z m2695 0 c0 -5 -2 -10 -4 -10 -3 0 -8 5 -11 10 -3 6 -1 10 4 10 6 0 11
-4 11 -10z m58 -14 c-1 -14 -5 -23 -9 -20 -7 4 0 44 7 44 2 0 3 -11 2 -24z
m-664 -2 c3 -8 2 -12 -4 -9 -6 3 -10 10 -10 16 0 14 7 11 14 -7z m-2319 -3 c3
-6 -3 -9 -14 -8 -11 0 -17 5 -15 9 7 11 22 10 29 -1z m652 3 c-9 -9 -87 -10
-87 -1 0 4 21 7 47 7 25 0 44 -3 40 -6z m2677 -2 c3 -5 -1 -9 -9 -9 -8 0 -12
4 -9 9 3 4 7 8 9 8 2 0 6 -4 9 -8z m-2831 -21 c-12 -10 -19 -22 -15 -26 8 -9
-17 3 -35 18 -19 14 -8 23 34 25 l38 2 -22 -19z m1976 -26 c0 -5 -4 -3 -9 5
-5 8 -9 22 -9 30 0 16 17 -16 18 -35z m491 20 c13 -14 21 -25 18 -25 -2 0 -15
11 -28 25 -13 14 -21 25 -18 25 2 0 15 -11 28 -25z m-2760 5 c0 -5 -2 -10 -4
-10 -3 0 -8 5 -11 10 -3 6 -1 10 4 10 6 0 11 -4 11 -10z m2997 -5 c0 -8 -4
-12 -8 -10 -4 3 -10 -2 -13 -11 -5 -12 -2 -15 11 -10 14 6 15 4 6 -4 -8 -9
-16 -9 -30 -1 -12 7 -14 10 -4 11 8 0 11 3 8 7 -5 4 15 28 29 33 0 0 1 -7 1
-15z m-895 -17 c-7 -7 -12 -8 -12 -2 0 14 12 26 19 19 2 -3 -1 -11 -7 -17z
m702 6 c3 -8 2 -12 -4 -9 -6 3 -10 10 -10 16 0 14 7 11 14 -7z m47 -9 c5 4 7
11 4 16 -4 5 -2 9 4 9 23 0 20 -20 -6 -34 -27 -13 -28 -13 -30 12 -1 22 0 23
9 9 5 -10 14 -15 19 -12z m-2988 -1 c-3 -9 -9 -12 -12 -7 -3 4 -10 11 -15 16
-5 4 0 7 12 7 15 0 20 -4 15 -16z m366 -10 c2 -2 -21 -4 -52 -4 -30 0 -64 -3
-74 -6 -12 -5 -15 -4 -8 4 6 6 21 12 35 14 25 4 91 -2 99 -8z m2841 6 c8 -5
11 -10 5 -10 -5 0 -17 5 -25 10 -8 5 -10 10 -5 10 6 0 17 -5 25 -10z m-17 -23
c4 3 7 4 7 0 0 -17 -20 -14 -36 6 -19 22 -19 22 2 4 11 -9 24 -14 27 -10z
m-7609 -65 c22 -55 43 -88 86 -131 41 -41 73 -89 109 -160 43 -87 51 -113 57
-179 5 -62 3 -85 -10 -110 -9 -18 -18 -32 -20 -32 -1 0 -3 27 -3 59 -1 63 -19
135 -32 126 -5 -2 -4 -28 1 -57 17 -94 -8 -184 -58 -206 -22 -11 -22 -11 -17
67 4 52 0 100 -11 148 -31 140 -56 170 -31 39 18 -92 20 -220 4 -265 -7 -21
-24 -38 -49 -51 l-39 -20 -58 31 c-55 29 -58 32 -57 69 1 22 10 49 22 65 34
42 54 107 50 161 l-3 49 -13 -55 c-7 -30 -19 -68 -26 -85 l-13 -30 0 35 c0 56
-17 123 -32 128 -11 4 -12 -1 -7 -19 18 -58 18 -120 2 -163 -9 -24 -24 -47
-32 -50 -12 -5 -14 3 -8 43 5 40 2 58 -16 95 -52 104 -129 166 -205 166 -33 0
-45 4 -45 15 0 30 78 55 175 56 l59 1 -39 14 c-22 7 -48 14 -57 14 -24 0 -24
3 22 70 22 33 45 71 50 85 11 30 45 33 110 10 53 -19 55 -19 40 -1 -6 8 -31
23 -56 32 -24 9 -44 19 -44 21 0 5 20 45 26 52 7 8 110 40 124 38 9 -1 28 -34
44 -75z m7431 68 c3 -5 1 -10 -4 -10 -6 0 -11 5 -11 10 0 6 2 10 4 10 3 0 8
-4 11 -10z m145 -21 c0 -5 -4 -9 -8 -9 -5 0 -9 7 -9 15 0 8 4 12 9 9 4 -3 8
-9 8 -15z m-113 -6 c-4 -3 -2 -12 4 -19 7 -8 7 -14 -1 -19 -6 -4 -9 -1 -8 5 2
7 -10 14 -26 15 -15 2 -31 7 -35 11 -3 4 6 4 21 0 15 -3 30 -2 33 4 3 5 9 10
12 10 4 0 3 -3 0 -7z m53 -28 c0 -2 -6 -5 -13 -8 -8 -3 -14 1 -14 8 0 7 6 11
14 8 7 -3 13 -6 13 -8z m220 -21 c0 -8 -19 -13 -24 -6 -3 5 1 9 9 9 8 0 15 -2
15 -3z m-2976 -10 c26 -10 9 -21 -25 -16 -22 3 -27 7 -18 13 17 10 23 11 43 3z
m2970 -30 c3 -8 2 -12 -4 -9 -6 3 -10 10 -10 16 0 14 7 11 14 -7z m-14 -19
c11 -13 10 -14 -4 -9 -9 3 -16 10 -16 15 0 13 6 11 20 -6z m-199 -12 c13 -16
12 -17 -3 -4 -17 13 -22 21 -14 21 2 0 10 -8 17 -17z m-7039 -42 c15 -21 39
-73 53 -116 32 -93 33 -90 -90 -160 -85 -49 -95 -52 -95 -32 0 8 -16 54 -35
103 -40 103 -41 104 -17 104 32 0 78 37 111 89 18 28 36 51 40 51 3 0 18 -18
33 -39z m6382 13 c3 -8 2 -12 -4 -9 -6 3 -10 10 -10 16 0 14 7 11 14 -7z m755
0 c-12 -15 -11 -16 9 -10 16 5 24 3 28 -8 3 -9 10 -13 16 -10 5 3 4 12 -3 20
-6 8 -9 17 -5 21 3 3 6 1 6 -6 0 -8 8 -11 20 -8 27 7 25 1 -6 -28 -28 -26 -35
-30 -33 -17 4 23 -3 34 -17 28 -23 -9 -37 3 -23 20 6 8 14 14 16 14 3 0 -1 -7
-8 -16z m-972 -16 c-3 -8 -6 -5 -6 6 -1 11 2 17 5 13 3 -3 4 -12 1 -19z m966
-41 c-4 -7 0 -8 12 -3 16 6 17 5 3 -16 -14 -22 -47 -41 -34 -20 3 6 -4 18 -16
27 -21 15 -21 16 -3 13 15 -2 19 2 17 16 -3 17 -2 18 12 7 9 -7 13 -18 9 -24z
m-737 -15 c1 -20 -1 -29 -3 -19 -3 9 -8 15 -13 12 -15 -9 -21 14 -8 29 19 23
23 19 24 -22z m-2066 8 c0 -5 -2 -10 -4 -10 -3 0 -8 5 -11 10 -3 6 -1 10 4 10
6 0 11 -4 11 -10z m2054 -56 c9 -24 2 -26 -12 -4 -7 11 -8 20 -3 20 5 0 12 -7
15 -16z m-207 -46 c2 -17 0 -19 -7 -8 -5 8 -6 18 -4 22 8 12 10 10 11 -14z
m198 13 c3 -5 1 -12 -5 -16 -5 -3 -10 1 -10 9 0 18 6 21 15 7z m-184 -63 c11
-21 11 -22 -4 -9 -10 7 -17 17 -17 22 0 15 9 10 21 -13z m-3740 -8 c19 0 8
-21 -28 -55 -43 -41 -115 -58 -139 -33 -13 13 -13 17 3 37 20 24 119 63 141
56 8 -3 18 -5 23 -5z m3871 -21 c-4 -4 -18 -10 -31 -14 -20 -6 -22 -5 -11 7 7
7 21 14 31 14 11 0 15 -3 11 -7z m-7132 -21 c0 -3 16 -26 36 -50 19 -23 41
-50 48 -59 23 -27 36 -82 30 -116 -4 -19 -10 -33 -14 -31 -4 2 -26 26 -48 54
-49 62 -97 87 -169 86 -77 -1 -125 -37 -178 -134 -24 -44 -27 -58 -23 -124 4
-82 -8 -93 -30 -28 -30 86 12 272 71 317 36 27 130 76 167 87 30 9 110 8 110
-2z m638 -21 c5 -24 -15 -21 -21 4 -3 13 -1 19 6 16 7 -2 13 -11 15 -20z
m6447 5 c-3 -3 -11 0 -18 7 -9 10 -8 11 6 5 10 -3 15 -9 12 -12z m55 14 c0 -2
-7 -6 -15 -10 -8 -3 -15 -1 -15 4 0 6 7 10 15 10 8 0 15 -2 15 -4z m-6505 -86
c0 -22 -1 -40 -2 -40 -10 0 -23 45 -18 60 10 33 21 22 20 -20z m-661 -85 c37
-24 106 -123 106 -151 0 -42 10 -54 49 -54 144 -1 293 -190 205 -259 l-27 -21
-53 47 c-58 53 -109 93 -118 93 -18 0 4 -27 102 -126 60 -60 129 -137 155
-170 46 -61 46 -62 27 -79 -11 -10 -20 -24 -20 -32 0 -7 -3 -13 -6 -13 -11 0
-199 138 -220 161 -11 13 -54 75 -95 137 -54 83 -75 107 -77 92 -5 -33 113
-233 169 -285 44 -41 46 -46 29 -55 -43 -23 -73 -12 -125 47 -91 103 -145 156
-152 149 -3 -3 8 -25 25 -49 106 -141 123 -169 100 -162 -31 9 -122 64 -164
98 -58 48 -69 79 -54 156 l12 66 -56 58 c-58 61 -71 92 -70 177 1 78 66 169
140 195 41 14 75 8 118 -20z m8716 -40 c-7 -8 -19 -15 -27 -15 -10 0 -8 6 8
19 27 22 38 19 19 -4z m-1357 -5 c7 -29 -20 -48 -40 -27 -9 8 -13 23 -10 31 9
23 44 20 50 -4z m1287 -10 c0 -5 0 -13 -1 -16 -2 -14 28 -23 59 -18 19 3 32 2
29 -3 -7 -11 -113 -10 -123 0 -4 4 -2 7 4 7 7 0 12 9 12 20 0 11 5 20 10 20 6
0 10 -4 10 -10z m127 -16 c-3 -3 -12 -4 -19 -1 -8 3 -5 6 6 6 11 1 17 -2 13
-5z m-107 -58 c0 -2 -7 -7 -16 -10 -8 -3 -12 -2 -9 4 6 10 25 14 25 6z m34
-45 c-2 -3 -12 3 -22 13 -16 17 -16 18 5 5 12 -7 20 -15 17 -18z m-2862 -9
c33 -19 41 -37 28 -62 -14 -26 -36 -37 -92 -45 -57 -9 -98 0 -98 20 0 16 23
23 89 27 54 4 65 23 19 34 -18 4 -36 7 -40 6 -5 -1 -8 9 -8 22 0 23 3 24 38
19 20 -3 49 -13 64 -21z m2838 -4 c0 -6 -6 -5 -15 2 -8 7 -15 14 -15 16 0 2 7
1 15 -2 8 -4 15 -11 15 -16z m-185 2 c3 -6 -1 -7 -9 -4 -18 7 -21 14 -7 14 6
0 13 -4 16 -10z m-48 -26 c-3 -3 -12 -4 -19 -1 -8 3 -5 6 6 6 11 1 17 -2 13
-5z m17 -33 c3 -4 -6 -6 -19 -3 -14 2 -25 6 -25 8 0 8 39 4 44 -5z m-47 -17
c-3 -3 -12 -4 -19 -1 -8 3 -5 6 6 6 11 1 17 -2 13 -5z m-87 -24 c-8 -5 -19
-10 -25 -10 -5 0 -3 5 5 10 8 5 20 10 25 10 6 0 3 -5 -5 -10z m80 -12 c10 -3
8 -6 -8 -10 -12 -4 -20 -2 -16 3 7 12 0 11 -31 -3 -17 -8 -24 -17 -20 -27 5
-13 4 -13 -6 -4 -14 14 4 43 27 43 8 0 14 5 14 11 0 8 4 8 13 2 6 -6 19 -12
27 -15z m-120 -8 c0 -5 -5 -10 -11 -10 -5 0 -7 5 -4 10 3 6 8 10 11 10 2 0 4
-4 4 -10z m5 -46 c-9 -9 -18 -14 -21 -11 -9 9 6 27 22 27 13 0 13 -2 -1 -16z
m-39 -39 c-4 -40 5 -44 34 -15 23 23 31 25 24 6 -3 -9 6 -15 28 -20 24 -5 29
-9 19 -15 -9 -6 -23 -4 -37 6 -18 11 -27 12 -44 3 -28 -15 -57 5 -39 26 9 11
9 14 0 14 -8 0 -8 4 1 15 18 19 17 20 14 -20z m82 -94 c20 -28 20 -30 3 -28
-10 0 -17 6 -14 13 2 7 0 15 -6 19 -10 5 -16 25 -8 25 2 0 13 -13 25 -29z
m-44 -7 c5 -14 4 -15 -9 -4 -17 14 -19 20 -6 20 5 0 12 -7 15 -16z m-7864 -12
c0 -4 25 -45 55 -91 30 -46 55 -87 55 -92 0 -19 -31 6 -68 54 -22 29 -51 65
-66 81 -26 27 -26 29 -9 42 21 15 33 18 33 6z m7965 -12 c3 -6 -1 -7 -9 -4
-18 7 -21 14 -7 14 6 0 13 -4 16 -10z m-38 -16 c-3 -3 -12 -4 -19 -1 -8 3 -5
6 6 6 11 1 17 -2 13 -5z m-8347 -225 c26 -14 61 -23 85 -23 54 0 140 20 168
39 21 13 25 13 45 -1 30 -21 27 -34 -8 -34 -37 0 -62 -35 -62 -85 0 -32 -3
-35 -28 -35 -22 0 -29 5 -32 21 -2 12 -10 25 -18 29 -8 4 -28 14 -45 23 -20
10 -54 14 -103 13 -70 -1 -76 -3 -103 -34 -16 -17 -31 -44 -35 -59 -10 -49
-12 -52 -52 -77 -39 -24 -39 -24 -123 -10 -153 27 -271 72 -285 109 -22 55
187 129 406 144 133 9 136 9 190 -20z m580 11 c0 -5 -5 -10 -11 -10 -5 0 -7 5
-4 10 3 6 8 10 11 10 2 0 4 -4 4 -10z m-125 -78 l-28 -27 8 25 c4 14 15 31 24
38 9 8 10 11 4 7 -15 -7 -16 -4 -6 21 6 15 8 14 16 -9 8 -24 5 -32 -18 -55z
m149 52 c3 -8 2 -12 -4 -9 -6 3 -10 10 -10 16 0 14 7 11 14 -7z m-37 -16 c-3
-8 -6 -5 -6 6 -1 11 2 17 5 13 3 -3 4 -12 1 -19z m-184 -12 c20 -16 25 -96 5
-96 -27 0 -39 17 -33 43 4 14 2 35 -5 46 -13 25 4 29 33 7z m-58 -27 c4 -5 4
-21 1 -35 -5 -18 -13 -24 -35 -24 -36 0 -46 22 -26 61 13 25 19 28 35 19 10
-6 22 -15 25 -21z m287 9 c-7 -7 -12 -8 -12 -2 0 14 12 26 19 19 2 -3 -1 -11
-7 -17z m-566 -21 c-10 -7 -32 -23 -48 -36 -16 -13 -32 -21 -35 -17 -9 9 4 20
52 45 43 23 62 27 31 8z m421 -20 c-1 -26 -5 -33 -22 -34 -11 -1 -14 1 -6 4
11 5 11 7 0 15 -11 8 -10 8 4 4 11 -3 17 -1 16 7 -2 17 0 37 5 37 2 0 3 -15 3
-33z m130 17 c-3 -3 -12 -4 -19 -1 -8 3 -5 6 6 6 11 1 17 -2 13 -5z m-110 -46
c-3 -8 -6 -5 -6 6 -1 11 2 17 5 13 3 -3 4 -12 1 -19z m120 -48 c2 -20 -1 -17
-12 10 -17 43 -18 62 -3 35 7 -11 13 -31 15 -45z m29 3 c-1 -23 -7 -38 -16
-40 -9 -3 -11 -1 -5 4 6 4 10 23 10 41 -1 17 2 32 6 32 3 0 6 -17 5 -37z
m-126 -8 c0 -5 -5 -3 -10 5 -5 8 -10 20 -10 25 0 6 5 3 10 -5 5 -8 10 -19 10
-25z m-270 19 c0 -3 -13 -19 -30 -36 -31 -31 -39 -63 -17 -71 6 -3 -9 -6 -34
-6 -56 -1 -312 19 -318 25 -3 3 7 16 21 31 l26 26 40 -21 c90 -46 232 -32 232
23 0 14 7 25 18 28 26 7 62 8 62 1z m156 -2 c6 -4 16 -17 23 -29 11 -22 11
-22 -19 -5 -32 18 -47 42 -27 42 7 0 17 -4 23 -8z m80 -12 c5 1 10 -4 12 -12
3 -11 2 -11 -6 0 -5 8 -13 13 -18 12 -5 -1 -10 4 -12 12 -3 11 -2 11 6 0 5 -8
13 -13 18 -12z m-890 -65 c39 -9 107 -22 150 -30 l79 -13 -59 -1 c-87 -1 -328
72 -350 107 -2 4 21 -4 52 -19 31 -15 89 -34 128 -44z m921 13 c-3 -7 -5 -2
-5 12 0 14 2 19 5 13 2 -7 2 -19 0 -25z m-102 -8 c4 -6 -11 -10 -36 -10 -41 0
-42 0 -24 20 18 19 45 15 60 -10z m-141 5 c19 -14 18 -15 -12 -15 -30 0 -40 9
-25 23 9 10 15 8 37 -8z m6931 -53 c-3 -3 -11 0 -18 7 -9 10 -8 11 6 5 10 -3
15 -9 12 -12z m50 8 c3 -5 1 -10 -4 -10 -6 0 -11 5 -11 10 0 6 2 10 4 10 3 0
8 -4 11 -10z m55 0 c0 -5 -2 -10 -4 -10 -3 0 -8 5 -11 10 -3 6 -1 10 4 10 6 0
11 -4 11 -10z m205 0 c-3 -5 -10 -10 -16 -10 -5 0 -9 5 -9 10 0 6 7 10 16 10
8 0 12 -4 9 -10z"/>
<path d="M7365 3000 c5 -8 19 -29 32 -46 13 -18 32 -49 43 -70 11 -22 19 -33
20 -26 0 23 -47 106 -76 132 -15 14 -23 18 -19 10z"/>
<path d="M7360 2927 c0 -1 9 -20 20 -42 11 -22 20 -34 20 -27 0 15 -28 72 -35
72 -3 0 -5 -1 -5 -3z"/>
<path d="M6555 2695 c3 -16 7 -37 8 -46 1 -9 7 -15 14 -12 16 6 17 2 -8 48
-19 36 -20 37 -14 10z"/>
<path d="M6524 2608 l-19 -23 23 19 c12 11 22 21 22 23 0 8 -8 2 -26 -19z"/>
<path d="M6434 2581 c20 -22 26 -25 26 -13 0 4 -10 13 -22 21 -23 14 -23 14
-4 -8z"/>
<path d="M6475 2560 c-3 -5 -1 -10 4 -10 6 0 11 5 11 10 0 6 -2 10 -4 10 -3 0
-8 -4 -11 -10z"/>
<path d="M6760 2380 c6 -11 13 -20 15 -20 3 0 5 9 5 20 0 11 -7 20 -15 20 -13
0 -14 -4 -5 -20z"/>
<path d="M6716 2328 c4 -6 23 -25 41 -41 l34 -30 -30 -28 c-31 -28 -38 -44
-23 -53 20 -12 61 49 67 100 l7 51 -38 6 c-56 10 -66 9 -58 -5z"/>
<path d="M6662 2308 c6 -18 28 -21 28 -4 0 9 -7 16 -16 16 -9 0 -14 -5 -12
-12z"/>
<path d="M6854 2305 c-26 -11 -44 -32 -44 -51 0 -12 32 -1 56 19 36 31 29 50
-12 32z"/>
<path d="M6815 2220 c-7 -12 12 -40 26 -40 5 0 9 11 9 25 0 25 -23 35 -35 15z"/>
<path d="M5772 2208 c5 -15 28 -18 29 -3 0 6 -7 12 -17 13 -10 3 -15 -1 -12
-10z"/>
<path d="M5476 2142 c-2 -4 0 -14 5 -22 8 -13 10 -13 18 0 10 15 6 30 -9 30
-5 0 -11 -4 -14 -8z"/>
<path d="M5110 2116 c-5 -14 -16 -56 -25 -91 -8 -36 -21 -81 -29 -100 -20 -47
-11 -45 12 3 18 37 31 78 50 162 12 51 8 66 -8 26z"/>
<path d="M6330 2107 c-23 -46 -61 -70 -126 -75 -33 -3 -51 -8 -43 -12 20 -11
103 4 133 23 32 21 59 61 54 81 -2 9 -9 2 -18 -17z"/>
<path d="M6993 2073 c-7 -2 -13 -9 -13 -15 0 -12 41 -6 41 7 1 12 -11 15 -28
8z"/>
<path d="M5497 2005 c3 -27 7 -52 9 -54 7 -8 2 54 -6 79 -6 17 -7 9 -3 -25z"/>
<path d="M4869 2018 c6 -15 9 -64 7 -108 -4 -84 1 -93 37 -66 16 13 16 18 -7
95 -13 45 -29 88 -35 94 -10 9 -10 6 -2 -15z"/>
<path d="M6710 1936 c0 -21 21 -31 30 -15 5 7 6 17 4 21 -9 14 -34 9 -34 -6z"/>
<path d="M5130 1908 c-23 -18 -38 -34 -32 -36 13 -4 82 46 82 59 0 13 -2 12
-50 -23z"/>
<path d="M5127 1842 c-3 -4 6 -21 19 -37 27 -34 31 -28 9 15 -16 31 -21 35
-28 22z"/>
<path d="M7115 1781 c-7 -12 12 -24 25 -16 11 7 4 25 -10 25 -5 0 -11 -4 -15
-9z"/>
<path d="M6845 1660 c-7 -12 2 -30 16 -30 12 0 12 27 0 35 -5 3 -12 1 -16 -5z"/>
<path d="M6077 1570 c-16 -19 -16 -20 3 -20 13 0 24 -10 30 -25 5 -14 17 -25
25 -25 14 0 13 4 -4 26 -12 15 -21 35 -21 45 0 24 -11 24 -33 -1z"/>
<path d="M7224 1569 c-8 -14 11 -33 25 -25 6 4 11 11 11 16 0 13 -29 20 -36 9z"/>
<path d="M5970 1511 c0 -12 25 -26 63 -35 16 -4 27 -2 27 4 0 5 -7 10 -15 10
-9 0 -29 7 -45 15 -17 9 -30 11 -30 6z"/>
<path d="M5965 1461 c8 -14 75 -25 85 -15 5 5 -2 10 -16 10 -13 1 -36 5 -50 8
-16 4 -23 3 -19 -3z"/>
<path d="M6942 1444 c1 -9 9 -19 16 -22 9 -3 13 2 10 14 -1 9 -9 19 -16 22 -9
3 -13 -2 -10 -14z"/>
<path d="M2743 2323 c15 -2 37 -2 50 0 12 2 0 4 -28 4 -27 0 -38 -2 -22 -4z"/>
<path d="M2576 2164 c-3 -9 -6 -17 -6 -18 0 -2 22 -6 49 -9 28 -3 64 -13 81
-22 36 -18 50 -13 50 19 0 20 -8 26 -44 35 -66 16 -123 14 -130 -5z"/>
<path d="M2844 2126 c-13 -35 3 -46 68 -46 41 0 71 -5 86 -16 21 -14 22 -14
22 5 0 39 -26 54 -123 66 -37 5 -48 3 -53 -9z"/>
<path d="M2615 2053 c-3 -10 3 -17 17 -21 13 -3 23 -5 23 -4 0 0 10 5 23 9 21
8 19 10 -17 19 -33 9 -41 8 -46 -3z"/>
<path d="M2837 2005 c-9 -21 9 -28 51 -20 l37 8 -35 12 c-46 17 -47 17 -53 0z"/>
<path d="M2725 1910 c3 -5 18 -10 32 -10 32 0 28 5 -10 14 -19 4 -26 3 -22 -4z"/>
<path d="M2685 1849 c24 -11 60 -18 90 -17 l50 1 -60 7 c-33 3 -70 12 -82 18
-12 7 -25 12 -30 11 -4 0 10 -9 32 -20z"/>
<path d="M2708 1813 c6 -2 18 -2 25 0 6 3 1 5 -13 5 -14 0 -19 -2 -12 -5z"/>
<path d="M2620 1794 c0 -3 7 -21 16 -40 18 -37 58 -64 96 -64 28 0 83 33 96
57 9 17 4 18 -66 18 -54 0 -87 6 -109 18 -18 10 -33 15 -33 11z"/>
<path d="M3620 1683 c0 -6 8 -17 18 -24 16 -13 16 -13 2 6 -8 11 -16 22 -17
24 -2 2 -3 0 -3 -6z"/>
<path d="M2510 1666 c0 -4 21 -16 48 -27 26 -11 85 -37 132 -57 47 -19 90 -40
96 -46 11 -11 40 -304 31 -313 -3 -2 -22 0 -44 6 -21 6 -83 14 -138 17 -55 4
-107 12 -115 18 -8 6 -6 1 4 -12 12 -14 21 -43 24 -77 4 -50 3 -55 -20 -66
-20 -8 -35 -7 -72 5 -49 17 -94 20 -143 10 -27 -5 -71 -60 -113 -143 -14 -27
-69 -218 -70 -239 0 -25 92 -5 113 23 23 30 46 32 80 5 34 -27 61 -25 77 6 8
14 22 30 32 35 10 5 18 16 18 23 0 20 27 40 35 26 3 -5 12 -10 18 -10 8 0 11
15 9 45 -2 26 0 45 6 45 12 0 22 -24 22 -56 0 -33 27 -31 34 4 9 38 50 87 65
78 13 -8 6 -62 -11 -83 -13 -17 6 -25 35 -14 30 12 67 4 67 -14 0 -7 -13 -18
-30 -25 -29 -12 -29 -13 -12 -36 14 -19 23 -22 50 -17 26 4 38 0 57 -17 21
-20 31 -22 81 -17 31 3 58 8 60 10 3 2 -16 43 -42 91 -54 102 -54 123 1 250
19 44 32 82 30 86 -3 4 -25 13 -50 20 -31 9 -45 18 -45 30 0 9 -5 77 -11 149
-11 132 -11 132 12 159 13 14 17 21 8 14 -13 -10 -41 -1 -160 49 -79 33 -150
63 -156 66 -7 3 -13 2 -13 -1z m-75 -596 c3 -5 1 -10 -4 -10 -6 0 -11 5 -11
10 0 6 2 10 4 10 3 0 8 -4 11 -10z m115 -65 c0 -29 -25 -39 -45 -19 -8 9 -15
17 -15 19 0 2 7 10 15 19 20 20 45 10 45 -19z m-85 15 c3 -5 1 -10 -4 -10 -6
0 -11 5 -11 10 0 6 2 10 4 10 3 0 8 -4 11 -10z"/>
<path d="M3592 1598 c-17 -17 -15 -90 5 -194 14 -73 18 -146 18 -404 0 -307 0
-312 11 -190 21 212 17 376 -11 539 -25 147 -31 217 -17 238 4 6 23 13 42 16
l35 4 -35 1 c-20 1 -41 -3 -48 -10z"/>
<path d="M5088 1572 c-28 -17 -36 -32 -18 -32 15 0 60 31 60 41 0 13 -11 11
-42 -9z"/>
<path d="M4880 1552 c0 -11 78 -27 87 -18 10 9 1 13 -44 21 -27 4 -43 3 -43
-3z"/>
<path d="M3310 1531 c0 -5 7 -15 17 -22 15 -13 15 -12 4 9 -12 23 -21 28 -21
13z"/>
<path d="M5074 1486 c-6 -17 2 -36 17 -36 12 0 12 37 -1 45 -6 3 -13 -1 -16
-9z"/>
<path d="M1934 1465 c2 -16 8 -58 12 -93 3 -34 11 -65 16 -68 6 -4 8 1 5 12
-3 11 -9 46 -13 79 -4 33 -11 69 -16 80 -7 16 -8 14 -4 -10z"/>
<path d="M3660 1465 c0 -8 5 -15 10 -15 6 0 10 7 10 15 0 8 -4 15 -10 15 -5 0
-10 -7 -10 -15z"/>
<path d="M4920 1455 c0 -17 5 -25 13 -22 6 2 12 12 12 22 0 10 -6 20 -12 23
-8 2 -13 -6 -13 -23z"/>
<path d="M5193 1473 c9 -2 25 -2 35 0 9 3 1 5 -18 5 -19 0 -27 -2 -17 -5z"/>
<path d="M2656 1444 c-4 -10 -1 -24 7 -31 19 -19 49 -5 45 21 -4 27 -43 34
-52 10z"/>
<path d="M5010 1396 c0 -30 3 -57 8 -60 13 -8 92 17 92 30 0 13 -77 84 -91 84
-5 0 -9 -24 -9 -54z"/>
<path d="M4930 1302 c0 -14 36 -39 63 -44 15 -3 24 -1 21 3 -3 5 1 9 9 9 8 0
20 6 26 14 9 11 2 12 -38 8 -30 -2 -51 0 -55 7 -8 13 -26 15 -26 3z"/>
<path d="M4409 1274 c-24 -59 -38 -152 -39 -243 0 -118 12 -112 16 7 2 75 6
110 14 132 1 3 1 15 1 26 -1 12 5 39 14 59 8 21 13 40 10 43 -2 3 -10 -8 -16
-24z"/>
<path d="M4796 1239 c18 -35 71 -96 77 -88 3 2 7 15 10 29 5 21 -1 29 -41 55
-64 41 -66 42 -46 4z"/>
<path d="M5090 1229 c-21 -18 -28 -29 -19 -29 16 0 66 47 58 54 -2 2 -20 -9
-39 -25z"/>
<path d="M4756 1212 c-10 -17 25 -362 38 -379 3 -4 235 -53 250 -53 7 0 17 11
20 24 3 14 15 28 26 31 15 5 20 15 20 45 0 35 -3 39 -32 45 -18 4 -36 12 -39
17 -8 13 -136 28 -179 22 -44 -7 -65 13 -56 51 4 14 2 25 -3 25 -4 0 -11 26
-15 58 -12 104 -13 112 -18 118 -3 3 -9 1 -12 -4z"/>
<path d="M4973 1213 c-7 -2 -13 -10 -13 -16 0 -8 4 -7 12 1 17 17 41 15 35 -2
-4 -10 -1 -13 9 -9 11 4 12 9 3 19 -12 14 -24 16 -46 7z"/>
<path d="M5823 1203 c-7 -2 -13 -14 -13 -25 0 -20 1 -21 20 -3 30 27 26 42 -7
28z"/>
<path d="M1957 1165 c3 -22 7 -42 9 -44 8 -9 2 45 -6 64 -7 14 -8 8 -3 -20z"/>
<path d="M2500 1186 c0 -2 8 -10 18 -17 15 -13 16 -12 3 4 -13 16 -21 21 -21
13z"/>
<path d="M4950 1165 c0 -8 4 -15 9 -15 5 0 14 7 21 15 10 13 9 15 -9 15 -12 0
-21 -6 -21 -15z"/>
<path d="M5078 1163 c6 -2 18 -2 25 0 6 3 1 5 -13 5 -14 0 -19 -2 -12 -5z"/>
<path d="M3361 1134 c0 -11 3 -14 6 -6 3 7 2 16 -1 19 -3 4 -6 -2 -5 -13z"/>
<path d="M3710 1135 c0 -8 5 -15 10 -15 6 0 10 7 10 15 0 8 -4 15 -10 15 -5 0
-10 -7 -10 -15z"/>
<path d="M5310 1120 c0 -5 4 -10 9 -10 6 0 13 5 16 10 3 6 -1 10 -9 10 -9 0
-16 -4 -16 -10z"/>
<path d="M3394 1098 l-19 -23 23 19 c21 18 27 26 19 26 -2 0 -12 -10 -23 -22z"/>
<path d="M5068 1113 c6 -2 18 -2 25 0 6 3 1 5 -13 5 -14 0 -19 -2 -12 -5z"/>
<path d="M4823 1083 c-18 -7 -16 -33 2 -33 8 0 15 2 15 4 0 2 3 11 6 20 6 16
0 19 -23 9z"/>
<path d="M5145 1060 c-3 -5 -3 -15 1 -21 6 -11 23 6 24 24 0 10 -18 9 -25 -3z"/>
<path d="M5088 1043 c6 -2 18 -2 25 0 6 3 1 5 -13 5 -14 0 -19 -2 -12 -5z"/>
<path d="M3326 1025 c-9 -26 -7 -32 5 -12 6 10 9 21 6 23 -2 3 -7 -2 -11 -11z"/>
<path d="M3270 980 c6 -11 13 -20 16 -20 2 0 0 9 -6 20 -6 11 -13 20 -16 20
-2 0 0 -9 6 -20z"/>
<path d="M5766 975 c4 -8 11 -15 18 -16 6 0 23 -2 39 -4 37 -5 34 10 -4 24
-44 15 -59 14 -53 -4z"/>
<path d="M1601 929 c-24 -11 -42 -22 -39 -24 7 -7 88 27 88 37 0 4 -1 8 -2 7
-2 0 -23 -9 -47 -20z"/>
<path d="M5870 939 c0 -5 5 -7 10 -4 6 3 10 8 10 11 0 2 -4 4 -10 4 -5 0 -10
-5 -10 -11z"/>
<path d="M5767 934 c-8 -8 1 -24 14 -24 5 0 9 7 9 15 0 15 -12 20 -23 9z"/>
<path d="M5543 915 c19 -11 33 -13 44 -6 14 8 13 9 -7 8 -14 0 -34 3 -45 7
-11 4 -8 0 8 -9z"/>
<path d="M6190 911 c-22 -6 -23 -8 -7 -14 30 -11 47 -8 47 8 0 16 -2 17 -40 6z"/>
<path d="M5642 901 c-10 -6 -7 -10 12 -15 34 -8 83 3 64 15 -17 11 -59 11 -76
0z"/>
<path d="M6000 905 c0 -13 45 -26 71 -20 46 10 34 25 -21 25 -27 0 -50 -2 -50
-5z"/>
<path d="M3266 880 c12 -14 24 -32 27 -40 5 -13 6 -13 6 1 1 8 -11 26 -26 40
l-28 24 21 -25z"/>
<path d="M5355 890 c-19 -8 -19 -9 2 -9 12 -1 25 4 28 9 7 12 -2 12 -30 0z"/>
<path d="M5490 882 c0 -14 43 -23 54 -12 7 7 4 10 -6 10 -9 0 -23 3 -32 6 -9
3 -16 2 -16 -4z"/>
<path d="M5595 869 c-10 -15 3 -25 16 -12 7 7 7 13 1 17 -6 3 -14 1 -17 -5z"/>
<path d="M5863 874 c11 -11 68 -14 62 -4 -3 6 -20 10 -37 10 -17 0 -29 -3 -25
-6z"/>
<path d="M6150 870 c0 -5 7 -10 15 -10 8 0 15 5 15 10 0 6 -7 10 -15 10 -8 0
-15 -4 -15 -10z"/>
<path d="M5993 843 c9 -2 23 -2 30 0 6 3 -1 5 -18 5 -16 0 -22 -2 -12 -5z"/>
<path d="M3738 833 c7 -3 16 -2 19 1 4 3 -2 6 -13 5 -11 0 -14 -3 -6 -6z"/>
<path d="M5748 833 c7 -3 16 -2 19 1 4 3 -2 6 -13 5 -11 0 -14 -3 -6 -6z"/>
<path d="M3253 823 c4 -6 26 -26 49 -45 23 -18 39 -28 35 -21 -4 6 -26 26 -49
45 -23 18 -39 28 -35 21z"/>
<path d="M3680 790 c0 -5 5 -10 10 -10 6 0 10 5 10 10 0 6 -4 10 -10 10 -5 0
-10 -4 -10 -10z"/>
<path d="M3292 730 c-19 -4 -47 -21 -64 -36 -32 -30 -78 -116 -78 -147 0 -16
3 -16 41 4 45 23 44 23 75 -33 8 -16 10 -28 5 -28 -13 0 -44 -58 -37 -69 3 -5
26 -14 52 -21 31 -9 49 -21 57 -37 7 -16 16 -22 29 -17 10 3 18 0 18 -6 0 -8
10 -10 26 -7 16 3 28 0 31 -9 7 -19 32 -18 39 1 9 21 24 19 24 -4 0 -29 21
-37 39 -14 9 11 21 18 27 16 5 -2 18 13 27 33 l18 36 -30 34 c-17 19 -42 58
-55 87 -19 38 -45 69 -101 115 -56 47 -75 69 -75 87 0 27 -9 29 -68 15z"/>
<path d="M4757 723 c-4 -3 -7 -13 -7 -22 1 -13 3 -13 11 2 11 19 8 33 -4 20z"/>
<path d="M2188 713 c-16 -2 -28 -8 -28 -13 0 -5 17 -4 38 2 61 17 57 21 -10
11z"/>
<path d="M2237 683 c18 -2 50 -2 70 0 21 2 7 4 -32 4 -38 0 -55 -2 -38 -4z"/>
<path d="M2452 673 c48 -2 129 -2 180 0 51 1 12 3 -87 3 -99 0 -141 -2 -93 -3z"/>
<path d="M3096 655 c4 -8 8 -15 10 -15 2 0 4 7 4 15 0 8 -4 15 -10 15 -5 0 -7
-7 -4 -15z"/>
<path d="M3592 505 c0 -16 2 -22 5 -12 2 9 2 23 0 30 -3 6 -5 -1 -5 -18z"/>
<path d="M1460 489 c-14 -26 -6 -51 15 -43 16 7 22 64 5 64 -5 0 -14 -9 -20
-21z"/>
<path d="M1524 486 c-3 -14 -3 -30 1 -36 11 -17 35 8 35 36 0 32 -28 31 -36 0z"/>
<path d="M1589 489 c-7 -14 -8 -24 -1 -31 15 -15 32 0 32 28 0 30 -15 31 -31
3z"/>
<path d="M1657 503 c-11 -10 -8 -63 3 -63 6 0 14 10 19 23 12 33 -2 60 -22 40z"/>
<path d="M1717 503 c-10 -10 -8 -51 2 -58 13 -7 34 33 27 51 -6 15 -18 18 -29
7z"/>
<path d="M3650 455 c0 -8 5 -15 10 -15 6 0 10 7 10 15 0 8 -4 15 -10 15 -5 0
-10 -7 -10 -15z"/>
<path d="M3116 432 c-5 -8 -46 -165 -46 -176 0 -3 47 -6 105 -6 l106 0 -3 56
-3 55 -72 40 c-79 42 -80 43 -87 31z"/>
<path d="M1582 398 c-14 -14 -16 -58 -2 -58 15 0 28 33 21 53 -5 14 -9 15 -19
5z"/>
<path d="M1642 398 c-7 -7 -12 -22 -12 -35 0 -32 28 -30 36 3 8 30 -7 49 -24
32z"/>
<path d="M1702 398 c-7 -7 -12 -22 -12 -35 0 -32 28 -30 36 3 8 30 -7 49 -24
32z"/>
<path d="M1441 378 c-12 -31 6 -49 24 -25 14 19 10 47 -6 47 -5 0 -14 -10 -18
-22z"/>
<path d="M1510 385 c-14 -17 -5 -48 13 -43 14 5 23 58 9 58 -5 0 -15 -7 -22
-15z"/>
<path d="M1556 292 c-7 -11 4 -52 14 -52 9 0 20 25 20 46 0 15 -25 19 -34 6z"/>
<path d="M1615 279 c-8 -23 7 -45 24 -35 6 4 11 18 11 32 0 30 -26 32 -35 3z"/>
<path d="M1676 278 c-3 -13 -1 -27 3 -31 14 -14 31 2 31 29 0 30 -26 32 -34 2z"/>
<path d="M1417 185 c-20 -19 -19 -46 0 -52 13 -5 28 37 21 58 -3 8 -10 6 -21
-6z"/>
<path d="M1607 193 c-11 -10 -8 -63 3 -63 6 0 14 10 19 23 12 33 -2 60 -22 40z"/>
<path d="M1661 178 c-9 -25 -4 -48 10 -48 12 0 28 41 22 58 -8 19 -23 14 -32
-10z"/>
<path d="M1476 183 c-12 -13 -6 -53 9 -53 9 0 15 9 15 24 0 26 -12 40 -24 29z"/>
<path d="M2980 105 c0 -8 7 -15 16 -15 14 0 14 3 4 15 -7 8 -14 15 -16 15 -2
0 -4 -7 -4 -15z"/>
<path d="M1460 81 c-15 -29 -12 -41 10 -41 16 0 20 7 20 30 0 34 -14 39 -30
11z"/>
<path d="M1591 86 c-15 -18 -11 -48 6 -53 7 -3 15 7 19 22 8 33 -8 52 -25 31z"/>
<path d="M1652 88 c-7 -7 -12 -22 -12 -35 0 -32 28 -30 36 3 8 30 -7 49 -24
32z"/>
<path d="M1390 60 c0 -35 17 -40 29 -7 10 26 6 37 -15 37 -9 0 -14 -11 -14
-30z"/>
<path d="M1517 73 c-13 -12 -7 -23 13 -23 11 0 20 7 20 15 0 15 -21 21 -33 8z"/>
<path d="M3850 2420 c-8 -5 -10 -10 -5 -10 6 0 17 5 25 10 8 5 11 10 5 10 -5
0 -17 -5 -25 -10z"/>
<path d="M3665 2380 c-3 -5 -2 -10 4 -10 5 0 13 5 16 10 3 6 2 10 -4 10 -5 0
-13 -4 -16 -10z"/>
<path d="M4046 2355 c-9 -26 -7 -32 5 -12 6 10 9 21 6 23 -2 3 -7 -2 -11 -11z"/>
<path d="M3698 2253 c7 -3 16 -2 19 1 4 3 -2 6 -13 5 -11 0 -14 -3 -6 -6z"/>
<path d="M4000 2226 c0 -6 66 -46 75 -46 4 0 -9 11 -29 25 -36 25 -46 29 -46
21z"/>
<path d="M3940 2200 c-9 -6 -10 -10 -3 -10 6 0 15 5 18 10 8 12 4 12 -15 0z"/>
<path d="M4080 2164 c0 -6 7 -19 16 -30 14 -18 14 -18 3 6 -14 31 -19 36 -19
24z"/>
<path d="M4092 2045 c0 -16 2 -22 5 -12 2 9 2 23 0 30 -3 6 -5 -1 -5 -18z"/>
<path d="M8586 2064 c-9 -22 -8 -26 6 -22 13 5 20 38 8 38 -4 0 -11 -7 -14
-16z"/>
<path d="M7850 1975 c-19 -22 -8 -25 13 -3 9 10 13 18 8 18 -5 0 -14 -7 -21
-15z"/>
<path d="M8659 743 c-18 -4 -39 -44 -39 -73 0 -17 7 -20 49 -20 57 0 98 28
103 70 3 24 0 25 -47 26 -27 0 -57 -1 -66 -3z"/>
<path d="M1184 1655 c-20 -63 -14 -84 28 -99 31 -11 77 0 85 20 8 22 -2 27
-25 13 -16 -10 -26 -10 -45 -2 -24 11 -24 14 -15 58 16 73 -6 81 -28 10z"/>
<path d="M844 1438 c69 -47 104 -79 122 -112 28 -49 38 -33 14 21 -21 48 -74
91 -121 98 -30 5 -32 4 -15 -7z"/>
<path d="M830 1245 c0 -18 19 -40 26 -32 4 4 0 15 -9 24 -9 10 -17 13 -17 8z"/>
<path d="M8595 1420 c3 -5 11 -10 16 -10 6 0 7 5 4 10 -3 6 -11 10 -16 10 -6
0 -7 -4 -4 -10z"/>
<path d="M7975 1010 c-3 -5 -1 -10 4 -10 6 0 11 5 11 10 0 6 -2 10 -4 10 -3 0
-8 -4 -11 -10z"/>
<path d="M10162 1950 c-39 -9 -46 -15 -39 -33 4 -10 19 -11 76 -3 75 10 87 20
45 36 -28 11 -35 11 -82 0z"/>
<path d="M9867 1933 c-15 -14 -5 -22 36 -28 23 -3 57 -9 75 -12 25 -4 32 -2
32 11 0 9 -12 21 -26 26 -29 11 -107 13 -117 3z"/>
<path d="M10168 1893 c-10 -2 -18 -13 -18 -24 0 -15 6 -20 23 -17 12 2 22 10
22 18 0 8 5 18 10 22 11 8 -9 9 -37 1z"/>
<path d="M10118 1873 c7 -3 16 -2 19 1 4 3 -2 6 -13 5 -11 0 -14 -3 -6 -6z"/>
<path d="M9957 1864 c-11 -12 13 -43 28 -38 22 9 19 44 -3 44 -10 0 -22 -3
-25 -6z"/>
<path d="M10080 1760 c0 -5 9 -10 20 -10 11 0 20 5 20 10 0 6 -9 10 -20 10
-11 0 -20 -4 -20 -10z"/>
<path d="M10050 1710 c8 -5 26 -10 39 -10 32 0 24 6 -19 14 -25 4 -31 3 -20
-4z"/>
<path d="M10018 1698 c5 -5 16 -8 23 -6 8 3 3 7 -10 11 -17 4 -21 3 -13 -5z"/>
<path d="M10126 1649 c-10 -6 -48 -9 -87 -7 -74 4 -80 -1 -53 -40 12 -18 25
-22 64 -22 63 0 78 6 95 41 22 42 18 49 -19 28z"/>
<path d="M9837 1084 c-12 -12 -8 -42 6 -47 21 -8 39 8 35 29 -3 19 -29 30 -41
18z"/>
<path d="M10620 1006 c0 -32 20 -33 137 -11 99 19 104 19 96 -2 -5 -15 -3 -16
8 -5 25 23 -7 33 -125 39 l-116 6 0 -27z"/>
<path d="M9541 894 c0 -11 3 -14 6 -6 3 7 2 16 -1 19 -3 4 -6 -2 -5 -13z"/>
<path d="M9837 824 c-12 -12 -8 -42 6 -47 21 -8 39 8 35 29 -3 19 -29 30 -41
18z"/>
<path d="M9844 485 c-9 -23 3 -45 25 -45 23 0 35 28 20 46 -15 18 -38 18 -45
-1z"/>
</g>
</svg>
